<svg xmlns="http://www.w3.org/2000/svg" xmlns:xlink="http://www.w3.org/1999/xlink" width="512" zoomAndPan="magnify" viewBox="0 0 384 383.999986" height="512" preserveAspectRatio="xMidYMid meet" version="1.0"><defs><clipPath id="94632d1513"><path d="M 0.859375 0.453125 L 303.535156 0.453125 L 303.535156 361.980469 L 0.859375 361.980469 Z M 0.859375 0.453125 " clip-rule="nonzero"/></clipPath><clipPath id="d0fd41c09f"><rect x="0" width="304" y="0" height="364"/></clipPath></defs><g transform="matrix(1, 0, 0, 1, 40, 10)"><g clip-path="url(#d0fd41c09f)"><g clip-path="url(#94632d1513)"><path fill="#7d2ae8" d="M 0.933594 31.691406 L 0.933594 220.117188 C 29.988281 307.429688 152.011719 363.488281 152.011719 363.488281 C 152.011719 363.488281 274.023438 307.429688 303.074219 220.117188 L 303.074219 31.691406 C 303.074219 31.691406 243.042969 0.453125 152.011719 0.453125 C 60.984375 0.453125 0.933594 31.691406 0.933594 31.691406 " fill-opacity="1" fill-rule="nonzero"/></g><path fill="#f9f9f6" d="M 210.335938 177.613281 C 209.441406 178.484375 209.03125 179.738281 209.242188 180.972656 L 221.046875 249.785156 C 221.578125 252.886719 218.324219 255.25 215.539062 253.785156 L 153.738281 221.296875 C 152.632812 220.714844 151.3125 220.714844 150.207031 221.296875 L 88.410156 253.785156 C 85.625 255.25 82.371094 252.886719 82.902344 249.785156 L 94.703125 180.972656 C 94.914062 179.738281 94.507812 178.484375 93.613281 177.613281 L 43.617188 128.878906 C 41.363281 126.679688 42.605469 122.855469 45.71875 122.402344 L 114.8125 112.363281 C 116.050781 112.183594 117.117188 111.40625 117.671875 110.285156 L 148.570312 47.675781 C 149.960938 44.855469 153.984375 44.855469 155.378906 47.675781 L 186.277344 110.285156 C 186.828125 111.40625 187.898438 112.183594 189.136719 112.363281 L 258.226562 122.402344 C 261.339844 122.855469 262.585938 126.679688 260.332031 128.878906 Z M 210.335938 177.613281 " fill-opacity="1" fill-rule="nonzero"/></g></g></svg>